<mxfile host="app.diagrams.net" modified="2023-07-30T05:23:28.448Z" agent="Mozilla/5.0 (Windows NT 10.0; Win64; x64) AppleWebKit/537.36 (KHTML, like Gecko) Chrome/115.0.0.0 Safari/537.36" etag="WjIZwlJR4i7AGak_3sD5" version="21.6.6" type="device">
  <diagram id="Gi5_93j05Tq5kSE1P_lF" name="Page-2">
    <mxGraphModel dx="2049" dy="1117" grid="1" gridSize="10" guides="1" tooltips="1" connect="1" arrows="1" fold="1" page="1" pageScale="1" pageWidth="850" pageHeight="1100" math="0" shadow="0">
      <root>
        <mxCell id="0" />
        <mxCell id="1" parent="0" />
        <mxCell id="S5m8VR_HZ--lrlstfprA-1" value="Maquina academia" style="swimlane;whiteSpace=wrap;html=1;startSize=23;" parent="1" vertex="1">
          <mxGeometry x="940" y="110" width="195" height="770" as="geometry" />
        </mxCell>
        <mxCell id="lw5n03ik5SxHir9IAl8i-6" value="" style="edgeStyle=orthogonalEdgeStyle;rounded=0;orthogonalLoop=1;jettySize=auto;html=1;" parent="S5m8VR_HZ--lrlstfprA-1" source="18j1XGoCvIrTiXG_NGVG-85" target="lw5n03ik5SxHir9IAl8i-3" edge="1">
          <mxGeometry relative="1" as="geometry" />
        </mxCell>
        <mxCell id="18j1XGoCvIrTiXG_NGVG-85" value="" style="ellipse;whiteSpace=wrap;html=1;aspect=fixed;fillColor=#000000;" parent="S5m8VR_HZ--lrlstfprA-1" vertex="1">
          <mxGeometry x="87.5" y="50" width="20" height="20" as="geometry" />
        </mxCell>
        <mxCell id="lw5n03ik5SxHir9IAl8i-3" value="Enviar señal electrica" style="rounded=1;whiteSpace=wrap;html=1;" parent="S5m8VR_HZ--lrlstfprA-1" vertex="1">
          <mxGeometry x="37.5" y="110" width="120" height="60" as="geometry" />
        </mxCell>
        <mxCell id="7F6fqmXWAmK54oai2_qa-5" value="Unidad lógica" style="shape=umlLifeline;perimeter=lifelinePerimeter;whiteSpace=wrap;html=1;container=1;collapsible=0;recursiveResize=0;outlineConnect=0;rounded=1;shadow=0;comic=0;labelBackgroundColor=none;strokeWidth=1;fontFamily=Verdana;fontSize=12;align=center;" parent="1" vertex="1">
          <mxGeometry x="400" y="110" width="120" height="410" as="geometry" />
        </mxCell>
        <mxCell id="7F6fqmXWAmK54oai2_qa-71" value="" style="rounded=0;whiteSpace=wrap;html=1;" parent="7F6fqmXWAmK54oai2_qa-5" vertex="1">
          <mxGeometry x="55" y="110" width="10" height="90" as="geometry" />
        </mxCell>
        <mxCell id="lw5n03ik5SxHir9IAl8i-10" style="edgeStyle=orthogonalEdgeStyle;rounded=0;orthogonalLoop=1;jettySize=auto;html=1;" parent="7F6fqmXWAmK54oai2_qa-5" source="7F6fqmXWAmK54oai2_qa-16" target="7F6fqmXWAmK54oai2_qa-30" edge="1">
          <mxGeometry relative="1" as="geometry">
            <Array as="points">
              <mxPoint x="65" y="200" />
            </Array>
          </mxGeometry>
        </mxCell>
        <mxCell id="7F6fqmXWAmK54oai2_qa-16" value="" style="rounded=0;whiteSpace=wrap;html=1;" parent="7F6fqmXWAmK54oai2_qa-5" vertex="1">
          <mxGeometry x="60" y="139" width="10" height="40" as="geometry" />
        </mxCell>
        <mxCell id="7F6fqmXWAmK54oai2_qa-17" value="" style="endArrow=classic;html=1;rounded=0;edgeStyle=orthogonalEdgeStyle;curved=1;" parent="7F6fqmXWAmK54oai2_qa-5" edge="1">
          <mxGeometry width="50" height="50" relative="1" as="geometry">
            <mxPoint x="65" y="120" as="sourcePoint" />
            <mxPoint x="70" y="149" as="targetPoint" />
            <Array as="points">
              <mxPoint x="100" y="120" />
              <mxPoint x="100" y="149" />
            </Array>
          </mxGeometry>
        </mxCell>
        <mxCell id="7F6fqmXWAmK54oai2_qa-18" value="Incrementar Puntaje" style="edgeLabel;html=1;align=center;verticalAlign=middle;resizable=0;points=[];" parent="7F6fqmXWAmK54oai2_qa-17" vertex="1" connectable="0">
          <mxGeometry x="-0.1339" y="-1" relative="1" as="geometry">
            <mxPoint x="51" y="3" as="offset" />
          </mxGeometry>
        </mxCell>
        <mxCell id="7F6fqmXWAmK54oai2_qa-30" value="" style="rounded=0;whiteSpace=wrap;html=1;" parent="7F6fqmXWAmK54oai2_qa-5" vertex="1">
          <mxGeometry x="225" y="200" width="10" height="100" as="geometry" />
        </mxCell>
        <mxCell id="7F6fqmXWAmK54oai2_qa-33" value="" style="rounded=0;whiteSpace=wrap;html=1;" parent="7F6fqmXWAmK54oai2_qa-5" vertex="1">
          <mxGeometry x="230" y="230" width="10" height="40" as="geometry" />
        </mxCell>
        <mxCell id="7F6fqmXWAmK54oai2_qa-34" value="" style="endArrow=classic;html=1;rounded=0;edgeStyle=orthogonalEdgeStyle;curved=1;entryX=1;entryY=0.25;entryDx=0;entryDy=0;" parent="7F6fqmXWAmK54oai2_qa-5" target="7F6fqmXWAmK54oai2_qa-33" edge="1">
          <mxGeometry width="50" height="50" relative="1" as="geometry">
            <mxPoint x="235" y="210" as="sourcePoint" />
            <mxPoint x="260" y="229" as="targetPoint" />
            <Array as="points">
              <mxPoint x="290" y="209" />
              <mxPoint x="290" y="240" />
            </Array>
          </mxGeometry>
        </mxCell>
        <mxCell id="7F6fqmXWAmK54oai2_qa-35" value="extraer datos y &lt;br&gt;actualizar displays" style="edgeLabel;html=1;align=center;verticalAlign=middle;resizable=0;points=[];" parent="7F6fqmXWAmK54oai2_qa-34" vertex="1" connectable="0">
          <mxGeometry x="-0.1339" y="-1" relative="1" as="geometry">
            <mxPoint x="51" y="11" as="offset" />
          </mxGeometry>
        </mxCell>
        <mxCell id="7F6fqmXWAmK54oai2_qa-36" style="edgeStyle=orthogonalEdgeStyle;rounded=0;orthogonalLoop=1;jettySize=auto;html=1;exitX=0;exitY=1;exitDx=0;exitDy=0;entryX=1.028;entryY=0.963;entryDx=0;entryDy=0;entryPerimeter=0;dashed=1;dashPattern=8 8;" parent="7F6fqmXWAmK54oai2_qa-5" source="7F6fqmXWAmK54oai2_qa-38" edge="1">
          <mxGeometry relative="1" as="geometry">
            <Array as="points">
              <mxPoint x="220" y="340" />
              <mxPoint x="220" y="340" />
            </Array>
            <mxPoint x="-104.72000000000003" y="340.02" as="targetPoint" />
          </mxGeometry>
        </mxCell>
        <mxCell id="7F6fqmXWAmK54oai2_qa-37" value="mostrar datos y emitir &lt;br&gt;alertas sonoras" style="edgeLabel;html=1;align=center;verticalAlign=middle;resizable=0;points=[];" parent="7F6fqmXWAmK54oai2_qa-36" vertex="1" connectable="0">
          <mxGeometry x="-0.2968" relative="1" as="geometry">
            <mxPoint x="-73" y="17" as="offset" />
          </mxGeometry>
        </mxCell>
        <mxCell id="7F6fqmXWAmK54oai2_qa-38" value="" style="rounded=0;whiteSpace=wrap;html=1;" parent="7F6fqmXWAmK54oai2_qa-5" vertex="1">
          <mxGeometry x="400" y="300" width="10" height="40" as="geometry" />
        </mxCell>
        <mxCell id="7F6fqmXWAmK54oai2_qa-28" style="edgeStyle=orthogonalEdgeStyle;rounded=0;orthogonalLoop=1;jettySize=auto;html=1;exitX=1;exitY=1;exitDx=0;exitDy=0;entryX=0;entryY=0;entryDx=0;entryDy=0;" parent="7F6fqmXWAmK54oai2_qa-5" source="7F6fqmXWAmK54oai2_qa-30" target="7F6fqmXWAmK54oai2_qa-38" edge="1">
          <mxGeometry relative="1" as="geometry">
            <Array as="points">
              <mxPoint x="280" y="300" />
              <mxPoint x="280" y="300" />
            </Array>
          </mxGeometry>
        </mxCell>
        <mxCell id="7F6fqmXWAmK54oai2_qa-29" value="señales electrónicas &lt;br&gt;y SPI" style="edgeLabel;html=1;align=center;verticalAlign=middle;resizable=0;points=[];" parent="7F6fqmXWAmK54oai2_qa-28" vertex="1" connectable="0">
          <mxGeometry x="-0.1849" y="-2" relative="1" as="geometry">
            <mxPoint x="11" y="-18" as="offset" />
          </mxGeometry>
        </mxCell>
        <mxCell id="7F6fqmXWAmK54oai2_qa-19" value="Microcontroladores de displays" style="shape=umlLifeline;perimeter=lifelinePerimeter;whiteSpace=wrap;html=1;container=1;collapsible=0;recursiveResize=0;outlineConnect=0;rounded=1;shadow=0;comic=0;labelBackgroundColor=none;strokeWidth=1;fontFamily=Verdana;fontSize=12;align=center;size=40;" parent="1" vertex="1">
          <mxGeometry x="570" y="110" width="120" height="410" as="geometry" />
        </mxCell>
        <mxCell id="7F6fqmXWAmK54oai2_qa-20" value="LEDs / matrices LED / buzzer" style="shape=umlLifeline;perimeter=lifelinePerimeter;whiteSpace=wrap;html=1;container=1;collapsible=0;recursiveResize=0;outlineConnect=0;rounded=1;shadow=0;comic=0;labelBackgroundColor=none;strokeWidth=1;fontFamily=Verdana;fontSize=12;align=center;" parent="1" vertex="1">
          <mxGeometry x="740" y="110" width="130" height="410" as="geometry" />
        </mxCell>
        <mxCell id="7F6fqmXWAmK54oai2_qa-21" value="Maquina academia" style="shape=umlLifeline;perimeter=lifelinePerimeter;whiteSpace=wrap;html=1;container=1;collapsible=0;recursiveResize=0;outlineConnect=0;rounded=1;shadow=0;comic=0;labelBackgroundColor=none;strokeWidth=1;fontFamily=Verdana;fontSize=12;align=center;" parent="1" vertex="1">
          <mxGeometry x="230" y="110" width="120" height="410" as="geometry" />
        </mxCell>
        <mxCell id="7F6fqmXWAmK54oai2_qa-22" value="" style="rounded=0;whiteSpace=wrap;html=1;" parent="7F6fqmXWAmK54oai2_qa-21" vertex="1">
          <mxGeometry x="55" y="100" width="10" height="240" as="geometry" />
        </mxCell>
        <mxCell id="7F6fqmXWAmK54oai2_qa-39" value="Máquina de puntaje" style="swimlane;whiteSpace=wrap;html=1;" parent="1" vertex="1">
          <mxGeometry x="1135" y="110" width="465" height="770" as="geometry" />
        </mxCell>
        <mxCell id="6QqYdo95UWe1-3D6EQtX-5" value="" style="edgeStyle=orthogonalEdgeStyle;rounded=0;orthogonalLoop=1;jettySize=auto;html=1;" parent="7F6fqmXWAmK54oai2_qa-39" source="7F6fqmXWAmK54oai2_qa-51" target="6QqYdo95UWe1-3D6EQtX-1" edge="1">
          <mxGeometry relative="1" as="geometry" />
        </mxCell>
        <mxCell id="7F6fqmXWAmK54oai2_qa-51" value="Recibir señal de toque" style="rounded=1;whiteSpace=wrap;html=1;" parent="7F6fqmXWAmK54oai2_qa-39" vertex="1">
          <mxGeometry x="40" y="110" width="120" height="60" as="geometry" />
        </mxCell>
        <mxCell id="jzRjKJ1btvhzckFvmiM4-1" style="edgeStyle=orthogonalEdgeStyle;rounded=0;orthogonalLoop=1;jettySize=auto;html=1;entryX=0;entryY=0.5;entryDx=0;entryDy=0;" edge="1" parent="7F6fqmXWAmK54oai2_qa-39" source="6QqYdo95UWe1-3D6EQtX-1" target="18j1XGoCvIrTiXG_NGVG-71">
          <mxGeometry relative="1" as="geometry">
            <Array as="points">
              <mxPoint x="35" y="250" />
              <mxPoint x="35" y="700" />
            </Array>
          </mxGeometry>
        </mxCell>
        <mxCell id="jzRjKJ1btvhzckFvmiM4-5" value="" style="edgeStyle=orthogonalEdgeStyle;rounded=0;orthogonalLoop=1;jettySize=auto;html=1;" edge="1" parent="7F6fqmXWAmK54oai2_qa-39" source="6QqYdo95UWe1-3D6EQtX-1" target="jzRjKJ1btvhzckFvmiM4-4">
          <mxGeometry relative="1" as="geometry" />
        </mxCell>
        <mxCell id="6QqYdo95UWe1-3D6EQtX-1" value="Toque&lt;br&gt;válido?" style="rhombus;whiteSpace=wrap;html=1;" parent="7F6fqmXWAmK54oai2_qa-39" vertex="1">
          <mxGeometry x="60" y="210" width="80" height="80" as="geometry" />
        </mxCell>
        <mxCell id="jzRjKJ1btvhzckFvmiM4-6" style="edgeStyle=orthogonalEdgeStyle;rounded=0;orthogonalLoop=1;jettySize=auto;html=1;entryX=0;entryY=0;entryDx=0;entryDy=0;" edge="1" parent="7F6fqmXWAmK54oai2_qa-39" source="jzRjKJ1btvhzckFvmiM4-4" target="18j1XGoCvIrTiXG_NGVG-71">
          <mxGeometry relative="1" as="geometry">
            <Array as="points">
              <mxPoint x="100" y="686" />
            </Array>
          </mxGeometry>
        </mxCell>
        <mxCell id="jzRjKJ1btvhzckFvmiM4-12" value="" style="edgeStyle=orthogonalEdgeStyle;rounded=0;orthogonalLoop=1;jettySize=auto;html=1;" edge="1" parent="7F6fqmXWAmK54oai2_qa-39" source="jzRjKJ1btvhzckFvmiM4-4" target="jzRjKJ1btvhzckFvmiM4-7">
          <mxGeometry relative="1" as="geometry" />
        </mxCell>
        <mxCell id="jzRjKJ1btvhzckFvmiM4-4" value="Puntos&lt;br&gt;automáticos?" style="rhombus;whiteSpace=wrap;html=1;" vertex="1" parent="7F6fqmXWAmK54oai2_qa-39">
          <mxGeometry x="50" y="360" width="100" height="100" as="geometry" />
        </mxCell>
        <mxCell id="jzRjKJ1btvhzckFvmiM4-11" value="No" style="text;html=1;align=center;verticalAlign=middle;resizable=0;points=[];autosize=1;strokeColor=none;fillColor=none;" vertex="1" parent="7F6fqmXWAmK54oai2_qa-39">
          <mxGeometry x="25" y="220" width="40" height="30" as="geometry" />
        </mxCell>
        <mxCell id="jzRjKJ1btvhzckFvmiM4-14" style="edgeStyle=orthogonalEdgeStyle;rounded=0;orthogonalLoop=1;jettySize=auto;html=1;" edge="1" parent="7F6fqmXWAmK54oai2_qa-39" source="jzRjKJ1btvhzckFvmiM4-7" target="jzRjKJ1btvhzckFvmiM4-13">
          <mxGeometry relative="1" as="geometry" />
        </mxCell>
        <mxCell id="jzRjKJ1btvhzckFvmiM4-18" value="" style="edgeStyle=orthogonalEdgeStyle;rounded=0;orthogonalLoop=1;jettySize=auto;html=1;" edge="1" parent="7F6fqmXWAmK54oai2_qa-39" source="jzRjKJ1btvhzckFvmiM4-7" target="7F6fqmXWAmK54oai2_qa-40">
          <mxGeometry relative="1" as="geometry" />
        </mxCell>
        <mxCell id="jzRjKJ1btvhzckFvmiM4-7" value="Toque simultáneo?" style="rhombus;whiteSpace=wrap;html=1;" vertex="1" parent="7F6fqmXWAmK54oai2_qa-39">
          <mxGeometry x="210" y="365" width="90" height="90" as="geometry" />
        </mxCell>
        <mxCell id="7F6fqmXWAmK54oai2_qa-40" value="Incrementar Puntaje&lt;br&gt;a ambos esgrimistas" style="rounded=1;whiteSpace=wrap;html=1;" parent="7F6fqmXWAmK54oai2_qa-39" vertex="1">
          <mxGeometry x="195" y="500" width="120" height="60" as="geometry" />
        </mxCell>
        <mxCell id="jzRjKJ1btvhzckFvmiM4-16" style="edgeStyle=orthogonalEdgeStyle;rounded=0;orthogonalLoop=1;jettySize=auto;html=1;entryX=0.5;entryY=0;entryDx=0;entryDy=0;" edge="1" parent="7F6fqmXWAmK54oai2_qa-39" source="7F6fqmXWAmK54oai2_qa-60" target="18j1XGoCvIrTiXG_NGVG-71">
          <mxGeometry relative="1" as="geometry" />
        </mxCell>
        <mxCell id="7F6fqmXWAmK54oai2_qa-60" value="Actualizar displays" style="rounded=1;whiteSpace=wrap;html=1;" parent="7F6fqmXWAmK54oai2_qa-39" vertex="1">
          <mxGeometry x="195" y="590" width="120" height="60" as="geometry" />
        </mxCell>
        <mxCell id="jzRjKJ1btvhzckFvmiM4-10" value="" style="edgeStyle=orthogonalEdgeStyle;rounded=0;orthogonalLoop=1;jettySize=auto;html=1;" edge="1" parent="7F6fqmXWAmK54oai2_qa-39" source="7F6fqmXWAmK54oai2_qa-40" target="7F6fqmXWAmK54oai2_qa-60">
          <mxGeometry relative="1" as="geometry" />
        </mxCell>
        <mxCell id="jzRjKJ1btvhzckFvmiM4-17" style="edgeStyle=orthogonalEdgeStyle;rounded=0;orthogonalLoop=1;jettySize=auto;html=1;" edge="1" parent="7F6fqmXWAmK54oai2_qa-39" source="jzRjKJ1btvhzckFvmiM4-13" target="7F6fqmXWAmK54oai2_qa-60">
          <mxGeometry relative="1" as="geometry">
            <Array as="points">
              <mxPoint x="405" y="620" />
            </Array>
          </mxGeometry>
        </mxCell>
        <mxCell id="jzRjKJ1btvhzckFvmiM4-13" value="Incrementar Puntaje&lt;br&gt;individual" style="rounded=1;whiteSpace=wrap;html=1;" vertex="1" parent="7F6fqmXWAmK54oai2_qa-39">
          <mxGeometry x="345" y="500" width="120" height="60" as="geometry" />
        </mxCell>
        <mxCell id="18j1XGoCvIrTiXG_NGVG-73" value="" style="group" parent="7F6fqmXWAmK54oai2_qa-39" vertex="1" connectable="0">
          <mxGeometry x="235" y="680" width="40" height="40" as="geometry" />
        </mxCell>
        <mxCell id="18j1XGoCvIrTiXG_NGVG-71" value="" style="ellipse;whiteSpace=wrap;html=1;aspect=fixed;" parent="18j1XGoCvIrTiXG_NGVG-73" vertex="1">
          <mxGeometry width="40" height="40" as="geometry" />
        </mxCell>
        <mxCell id="18j1XGoCvIrTiXG_NGVG-72" value="" style="ellipse;whiteSpace=wrap;html=1;aspect=fixed;fillColor=#000000;" parent="18j1XGoCvIrTiXG_NGVG-73" vertex="1">
          <mxGeometry x="10" y="10" width="20" height="20" as="geometry" />
        </mxCell>
        <mxCell id="jzRjKJ1btvhzckFvmiM4-20" value="Si" style="text;html=1;align=center;verticalAlign=middle;resizable=0;points=[];autosize=1;strokeColor=none;fillColor=none;" vertex="1" parent="7F6fqmXWAmK54oai2_qa-39">
          <mxGeometry x="150" y="380" width="30" height="30" as="geometry" />
        </mxCell>
        <mxCell id="jzRjKJ1btvhzckFvmiM4-22" value="No" style="text;html=1;align=center;verticalAlign=middle;resizable=0;points=[];autosize=1;strokeColor=none;fillColor=none;" vertex="1" parent="7F6fqmXWAmK54oai2_qa-39">
          <mxGeometry x="335" y="380" width="40" height="30" as="geometry" />
        </mxCell>
        <mxCell id="lw5n03ik5SxHir9IAl8i-1" style="edgeStyle=orthogonalEdgeStyle;rounded=0;orthogonalLoop=1;jettySize=auto;html=1;" parent="1" source="7F6fqmXWAmK54oai2_qa-22" edge="1">
          <mxGeometry relative="1" as="geometry">
            <mxPoint x="455" y="220.02857142857135" as="targetPoint" />
            <Array as="points">
              <mxPoint x="300" y="220" />
              <mxPoint x="300" y="220" />
            </Array>
          </mxGeometry>
        </mxCell>
        <mxCell id="lw5n03ik5SxHir9IAl8i-2" value="Enviar señal electrica" style="edgeLabel;html=1;align=center;verticalAlign=middle;resizable=0;points=[];" parent="lw5n03ik5SxHir9IAl8i-1" vertex="1" connectable="0">
          <mxGeometry x="0.0096" y="-2" relative="1" as="geometry">
            <mxPoint y="-12" as="offset" />
          </mxGeometry>
        </mxCell>
        <mxCell id="lw5n03ik5SxHir9IAl8i-4" value="" style="edgeStyle=orthogonalEdgeStyle;rounded=0;orthogonalLoop=1;jettySize=auto;html=1;" parent="1" source="lw5n03ik5SxHir9IAl8i-3" target="7F6fqmXWAmK54oai2_qa-51" edge="1">
          <mxGeometry relative="1" as="geometry" />
        </mxCell>
        <mxCell id="lw5n03ik5SxHir9IAl8i-11" value="Enviar datos" style="text;html=1;align=center;verticalAlign=middle;resizable=0;points=[];autosize=1;strokeColor=none;fillColor=none;" parent="1" vertex="1">
          <mxGeometry x="500" y="280" width="90" height="30" as="geometry" />
        </mxCell>
        <mxCell id="jzRjKJ1btvhzckFvmiM4-19" value="Si" style="text;html=1;align=center;verticalAlign=middle;resizable=0;points=[];autosize=1;strokeColor=none;fillColor=none;" vertex="1" parent="1">
          <mxGeometry x="1245" y="408" width="30" height="30" as="geometry" />
        </mxCell>
        <mxCell id="jzRjKJ1btvhzckFvmiM4-21" value="No" style="text;html=1;align=center;verticalAlign=middle;resizable=0;points=[];autosize=1;strokeColor=none;fillColor=none;" vertex="1" parent="1">
          <mxGeometry x="1230" y="658" width="40" height="30" as="geometry" />
        </mxCell>
        <mxCell id="jzRjKJ1btvhzckFvmiM4-23" value="Si" style="text;html=1;align=center;verticalAlign=middle;resizable=0;points=[];autosize=1;strokeColor=none;fillColor=none;" vertex="1" parent="1">
          <mxGeometry x="1385" y="558" width="30" height="30" as="geometry" />
        </mxCell>
      </root>
    </mxGraphModel>
  </diagram>
</mxfile>
